<?xml version="1.0" standalone="no"?>
<!DOCTYPE svg PUBLIC "-//W3C//DTD SVG 20010904//EN"
 "http://www.w3.org/TR/2001/REC-SVG-20010904/DTD/svg10.dtd">
<svg version="1.0" xmlns="http://www.w3.org/2000/svg"
 width="1024.000000pt" height="1024.000000pt" viewBox="0 0 1024.000000 1024.000000"
 preserveAspectRatio="xMidYMid meet">

<g transform="translate(0.000000,1024.000000) scale(0.100000,-0.100000)"
fill="#000000" stroke="none">
<path d="M4960 9013 c-788 -45 -1525 -319 -2138 -796 -183 -143 -434 -391
-586 -580 -378 -472 -611 -977 -730 -1582 -60 -304 -69 -800 -20 -1135 58
-407 180 -814 338 -1129 l46 -91 -230 0 -230 0 -5 -22 c-3 -13 -11 -61 -19
-108 -17 -99 -62 -326 -151 -775 -91 -454 -173 -884 -177 -925 l-3 -35 40 3
c22 2 189 23 370 47 182 25 473 62 649 85 l318 40 137 -75 c198 -108 485 -245
647 -309 1023 -403 2103 -480 3144 -225 194 48 588 177 745 244 176 75 377
174 553 273 l163 92 137 -15 c306 -35 1047 -136 1110 -152 12 -3 22 -2 22 1 0
3 -27 180 -60 393 -32 214 -95 624 -140 913 -44 289 -82 531 -85 538 -3 9 -55
12 -214 12 l-210 0 54 113 c267 563 383 1153 354 1810 -16 382 -88 731 -217
1055 -22 56 -38 102 -36 102 3 0 14 -5 25 -10 10 -6 19 -9 19 -7 0 2 -23 44
-50 92 -28 48 -49 89 -48 91 2 2 27 -10 56 -26 32 -19 67 -51 92 -85 25 -33
48 -55 60 -55 18 0 18 1 -1 46 -12 25 -19 48 -16 50 2 2 37 -11 78 -30 101
-47 259 -105 259 -96 0 21 -96 145 -170 220 -92 94 -176 155 -273 201 -72 33
-204 69 -257 69 -32 0 -40 5 -63 40 l-26 40 72 1 c128 2 130 6 30 69 -85 53
-87 55 -55 58 18 2 67 -4 108 -12 137 -29 159 -15 54 34 -48 22 -70 47 -32 36
37 -10 192 -29 198 -24 3 4 -14 18 -38 33 -26 16 -34 25 -20 22 12 -3 81 10
154 28 l132 33 -34 17 c-19 10 -64 28 -101 40 -212 73 -436 55 -603 -46 -33
-20 -62 -36 -64 -34 -2 2 20 48 47 104 28 56 49 101 46 101 -3 0 -33 -20 -68
-45 -34 -25 -63 -41 -65 -35 -5 14 29 59 80 106 37 34 45 49 56 102 7 34 22
83 33 109 11 25 18 47 17 49 -2 1 -32 -15 -67 -36 -82 -49 -157 -115 -206
-178 l-38 -51 -120 125 c-127 132 -281 270 -400 358 -449 331 -968 562 -1507
670 -240 48 -617 74 -870 59z m620 -252 c584 -77 1140 -302 1610 -652 196
-145 389 -321 508 -464 l42 -51 -16 -84 c-12 -60 -15 -123 -12 -214 2 -71 2
-122 0 -115 -17 58 -81 204 -109 249 -89 141 -227 238 -383 268 -78 16 -180
22 -180 11 0 -5 5 -9 10 -9 16 0 115 -65 157 -103 60 -52 85 -78 82 -82 -2 -2
-33 4 -69 12 -83 21 -283 23 -370 4 -74 -16 -173 -53 -243 -90 -50 -28 -157
-103 -157 -111 0 -3 75 -2 167 1 93 3 170 5 171 3 2 -1 -12 -13 -32 -26 -43
-27 -46 -43 -9 -52 19 -5 41 1 82 22 31 16 67 33 81 37 21 6 17 -1 -24 -44
-28 -28 -47 -53 -43 -57 14 -15 100 -15 214 0 183 24 193 22 98 -25 -44 -21
-90 -39 -102 -39 -57 0 -11 -18 121 -47 79 -18 159 -38 177 -47 l34 -14 -35
-1 c-51 -2 -180 -36 -260 -69 -152 -65 -315 -202 -375 -316 -16 -32 -37 -65
-46 -74 -8 -9 -15 -19 -15 -22 -1 -3 -11 -36 -23 -73 -13 -38 -28 -103 -35
-145 l-12 -77 -67 -3 c-42 -2 -67 -7 -67 -14 0 -24 -54 61 -109 172 -31 63
-85 165 -119 227 l-62 112 46 43 c84 77 124 192 124 355 0 111 -22 209 -69
301 -40 78 -106 163 -117 152 -5 -5 -47 -18 -94 -30 -170 -43 -270 -116 -366
-268 -2 -2 -26 3 -56 12 -141 41 -449 60 -589 37 l-47 -7 -26 54 c-15 30 -50
79 -79 109 -52 55 -199 183 -211 183 -3 0 -6 -9 -6 -20 0 -12 -5 -17 -14 -14
-18 7 -64 -49 -91 -111 -37 -84 -48 -149 -43 -257 l5 -99 -46 -31 c-409 -278
-638 -527 -735 -798 l-33 -92 -184 -6 c-101 -3 -535 -6 -964 -7 l-780 0 3 25
c2 14 14 59 27 100 339 1059 1151 1872 2210 2214 309 99 556 149 880 176 154
13 509 3 675 -19z m-819 -1258 c56 -43 129 -130 129 -154 0 -11 -33 -25 -75
-31 -16 -3 -25 -3 -20 -1 14 5 37 43 26 43 -5 0 -14 -7 -21 -15 -11 -13 -15
-11 -32 10 -11 14 -17 32 -14 40 3 9 0 15 -9 15 -7 0 -16 -8 -18 -17 -3 -11
-5 -7 -6 10 0 15 -10 53 -21 84 -11 32 -20 59 -20 60 0 11 28 -4 81 -44z
m1378 -52 c44 -62 91 -216 91 -300 0 -27 -4 -30 -51 -40 -29 -6 -54 -9 -57 -7
-2 3 7 28 22 55 14 28 26 59 26 70 0 18 -5 19 -55 14 -60 -6 -68 2 -34 33 12
10 28 32 36 48 15 28 14 31 -8 49 -13 11 -23 26 -21 33 5 23 -43 17 -100 -12
-61 -31 -147 -110 -185 -170 -16 -24 -32 -44 -36 -44 -5 0 -5 -10 -2 -21 5
-14 3 -19 -3 -15 -6 3 -20 -8 -32 -24 -12 -17 -24 -29 -27 -27 -10 10 30 135
57 177 26 41 77 95 137 144 35 29 135 66 180 66 35 0 45 -5 62 -29z m-999
-190 c0 -6 12 -6 32 0 55 15 308 7 308 -11 0 -4 -12 -12 -26 -19 -42 -19 -24
-20 41 -4 50 13 68 14 105 3 36 -10 41 -14 27 -21 -9 -6 -21 -18 -27 -29 -9
-18 -8 -18 20 -9 16 6 33 15 36 20 13 21 25 6 22 -30 -1 -23 -6 -37 -11 -34
-6 3 -16 -2 -24 -12 -13 -18 -13 -18 -27 0 -13 19 -16 19 -68 2 -73 -23 -93
-21 -43 3 47 24 39 22 -84 -20 -67 -23 -89 -35 -80 -42 10 -7 8 -8 -7 -4 -20
6 -194 -49 -250 -79 l-29 -16 30 3 c24 2 30 -1 30 -17 0 -11 -8 -21 -17 -23
-10 -2 -18 1 -18 7 0 6 7 11 15 11 8 0 15 5 15 10 0 7 -6 7 -20 0 -14 -8 -26
-8 -42 0 -19 9 -18 7 5 -13 27 -23 28 -41 1 -30 -10 4 -12 0 -7 -13 5 -14 3
-16 -11 -11 -10 4 -22 7 -27 7 -5 0 -9 9 -9 20 0 11 -5 20 -10 20 -6 0 -8 -11
-6 -24 2 -14 -1 -27 -7 -30 -7 -2 3 -2 21 1 22 4 32 2 32 -7 0 -9 7 -7 20 5
11 10 20 15 20 12 0 -3 12 5 26 18 20 18 30 22 40 14 9 -7 13 -6 16 5 2 11 7
13 17 7 12 -8 8 -16 -20 -43 -28 -28 -160 -118 -172 -118 -2 0 -4 7 -4 15 0 9
5 14 11 12 6 -2 16 2 23 9 23 23 14 24 -23 4 -19 -11 -33 -17 -30 -12 7 12
-11 38 -21 29 -4 -5 -1 -12 6 -16 11 -7 9 -13 -8 -30 -22 -22 -28 -37 -11 -26
6 3 10 2 10 -3 0 -9 -34 -34 -103 -76 -16 -10 -36 -14 -47 -11 -11 4 -20 2
-20 -3 0 -6 5 -12 11 -14 6 -2 -7 -17 -30 -32 -23 -16 -41 -32 -41 -35 0 -3
-9 -12 -21 -19 -17 -11 -24 -11 -37 1 -15 13 -20 11 -40 -14 -20 -24 -21 -28
-5 -22 10 3 22 13 26 20 5 7 13 11 18 7 5 -3 -9 -24 -31 -47 -34 -35 -42 -40
-51 -27 -8 12 -9 10 -4 -7 6 -21 -8 -33 -18 -15 -2 4 -2 1 -1 -6 3 -11 -23
-45 -83 -108 -26 -26 -28 -34 -10 -34 15 0 64 -113 73 -168 6 -39 7 -40 40
-36 18 2 52 -2 74 -10 22 -7 40 -11 40 -7 0 10 -33 28 -68 35 -17 4 -34 12
-37 17 -10 16 38 9 84 -11 50 -23 55 -24 45 -9 -3 6 -25 20 -48 30 -22 10 -33
19 -23 19 24 0 87 -27 109 -46 9 -9 21 -13 26 -10 5 3 15 -1 22 -9 7 -8 18
-15 24 -15 6 1 0 9 -13 20 -12 11 -27 17 -33 14 -5 -3 -17 1 -26 9 -9 8 -35
24 -57 36 l-40 22 45 -7 c25 -4 57 -13 72 -21 15 -7 30 -13 33 -12 4 0 17 -7
31 -15 13 -9 24 -12 24 -7 0 5 -42 31 -92 56 -78 39 -87 45 -53 40 48 -8 98
-23 145 -43 19 -9 39 -15 44 -13 5 1 18 -6 30 -16 20 -17 20 -17 7 0 -17 21
-128 77 -156 78 -16 0 -14 3 8 11 24 9 38 5 95 -23 86 -44 82 -42 82 -32 0 5
-29 28 -65 51 -36 24 -65 45 -65 48 0 12 62 -12 124 -47 38 -22 71 -37 73 -35
3 3 -23 26 -57 53 -43 33 -57 49 -46 51 9 2 28 -3 41 -12 30 -20 30 -20 49 -1
14 14 24 11 107 -30 50 -25 94 -44 96 -41 3 2 -6 10 -19 17 -53 27 -119 74
-109 77 10 3 186 -65 250 -97 71 -36 355 -260 473 -372 20 -20 39 -35 41 -33
6 7 41 -36 43 -52 1 -9 1 -14 -1 -12 -2 1 -4 8 -5 13 -3 17 -32 45 -42 39 -5
-3 -19 3 -31 13 -62 56 -50 29 32 -74 14 -18 37 -47 50 -65 20 -29 18 -28 -15
7 -22 22 -42 40 -46 40 -4 0 -13 6 -19 13 -7 6 -10 12 -5 12 4 0 -14 25 -39
56 -48 59 -138 137 -163 140 -7 2 -23 10 -35 20 -12 10 -8 4 8 -13 17 -17 32
-29 34 -27 4 4 102 -84 99 -89 -1 -1 5 -13 12 -27 12 -22 8 -21 -28 10 -22 19
-41 41 -41 48 -1 7 -5 11 -10 8 -5 -3 -42 29 -82 72 -41 43 -81 82 -89 87 -15
9 -4 -6 114 -161 32 -43 59 -85 60 -93 1 -9 4 -18 7 -21 12 -10 59 -83 59 -92
0 -13 -21 10 -57 62 -17 25 -51 68 -75 95 -24 28 -55 66 -68 85 -47 68 -103
129 -113 123 -6 -3 -7 -1 -4 4 4 6 0 16 -8 23 -8 7 -15 9 -15 6 0 -4 -10 3
-22 14 -13 12 -31 26 -42 32 -26 14 -13 -5 40 -62 71 -75 162 -205 152 -216
-3 -2 -42 36 -87 86 -46 49 -88 90 -94 90 -6 0 10 -21 36 -47 46 -47 123 -163
108 -163 -4 0 -30 24 -58 53 -57 59 -248 230 -264 235 -5 2 2 -9 17 -25 88
-93 233 -283 217 -283 -4 0 -39 27 -78 61 -38 33 -88 69 -110 80 -22 11 -31
14 -20 7 47 -30 252 -255 241 -265 -2 -3 -31 24 -62 59 -32 34 -92 97 -133
138 -42 41 -75 78 -73 82 1 5 -1 7 -6 5 -4 -1 -17 8 -30 21 -25 25 -40 24 -25
-2 4 -8 41 -49 81 -91 39 -41 72 -77 72 -79 0 -11 -101 53 -147 93 -81 72
-131 95 -55 26 34 -31 62 -62 62 -69 0 -7 18 -22 40 -35 22 -12 42 -26 45 -31
3 -5 -29 11 -71 36 -141 83 -294 152 -492 221 -79 27 -114 24 -41 -4 110 -43
585 -290 575 -300 -1 -2 -30 11 -64 27 -91 44 -91 39 -1 -30 48 -37 92 -85
124 -135 14 -22 1 -14 -46 29 -35 32 -93 78 -129 101 -82 53 -217 125 -233
124 -7 0 -2 -5 11 -11 12 -6 22 -15 22 -20 0 -5 4 -7 8 -4 5 3 26 -13 48 -35
l39 -41 -45 27 c-66 38 -211 107 -216 102 -2 -2 18 -16 46 -31 57 -31 279
-195 301 -222 10 -13 5 -12 -19 5 -43 30 -48 24 -11 -18 41 -47 36 -53 -7 -8
-44 45 -60 40 -18 -6 66 -71 55 -68 -26 7 -76 70 -251 203 -305 232 -11 5 -41
23 -67 38 -27 15 -48 26 -48 23 0 -2 35 -31 77 -63 103 -78 363 -312 363 -327
0 -6 -13 1 -28 16 -15 15 -35 27 -43 27 -10 -1 -9 -5 5 -15 11 -8 15 -15 9
-15 -6 0 -16 7 -23 15 -7 8 -9 15 -4 15 14 0 -49 60 -86 81 -30 18 -28 14 18
-28 29 -27 50 -52 46 -55 -3 -4 2 -19 12 -35 23 -36 8 -22 -80 77 -70 79 -216
214 -251 232 -11 6 23 -34 76 -88 129 -134 213 -248 200 -272 -6 -9 -11 -13
-11 -9 0 5 -5 5 -10 2 -7 -4 -5 -14 5 -28 8 -12 15 -26 15 -31 0 -5 -23 22
-52 60 -64 85 -197 244 -205 244 -3 0 -1 -6 4 -12 5 -7 35 -53 67 -103 32 -49
74 -113 92 -141 45 -68 44 -78 -7 -71 -22 3 -42 7 -43 9 -4 7 -142 165 -165
188 -21 22 -22 22 -13 4 7 -12 33 -55 60 -95 56 -86 126 -209 121 -213 -50
-44 -210 -60 -315 -31 -81 22 -171 79 -206 132 -56 85 -90 261 -104 542 -9
188 -23 163 -31 -56 -4 -132 -2 -194 12 -288 23 -157 23 -177 -4 -211 -45 -57
-110 -70 -169 -34 -63 39 -102 189 -68 261 l17 34 -21 -24 -20 -23 0 39 c0 28
6 46 21 59 11 10 25 27 31 38 9 17 8 17 -20 -2 -16 -12 -32 -22 -34 -22 -4 0
1 130 7 156 3 12 20 31 37 43 33 21 23 30 -13 11 -23 -13 -23 -16 -4 115 8 55
15 127 15 160 0 33 5 80 11 105 16 69 111 257 169 335 163 217 538 509 761
593 91 33 240 75 247 68 2 -3 -14 -14 -37 -26 -46 -23 -55 -35 -13 -18 44 18
176 57 195 57 9 1 17 -3 17 -8z m633 -170 c-3 -11 -14 -28 -26 -38 -21 -18
-21 -18 -6 7 9 14 19 31 23 38 11 18 15 15 9 -7z m-157 -26 c-8 -8 -22 -12
-31 -8 -14 5 -16 2 -10 -16 6 -19 3 -21 -22 -20 -33 1 -125 -17 -150 -30 -20
-10 -73 -33 -88 -39 -5 -2 1 6 15 18 l25 21 -35 -7 c-19 -3 -36 -10 -38 -15
-2 -5 -8 -9 -13 -9 -19 0 1 18 48 44 27 16 54 24 65 20 19 -6 120 25 126 38 2
4 9 5 15 2 7 -2 26 0 42 5 17 5 38 10 48 10 16 1 17 -1 3 -14z m595 -17 c-13
-54 -40 -98 -74 -118 -42 -26 -55 -25 -26 1 17 14 20 22 12 25 -10 4 -10 11 2
27 21 30 21 54 0 37 -13 -11 -14 -10 -10 1 8 19 66 59 86 59 14 0 16 -6 10
-32z m-904 -14 c-3 -3 -12 -4 -19 -1 -8 3 -5 6 6 6 11 1 17 -2 13 -5z m-67
-39 c23 5 30 4 26 -4 -4 -6 -17 -12 -29 -12 -17 -1 -18 -2 -4 -6 9 -2 17 -9
17 -14 0 -6 -10 -8 -22 -5 -13 3 -17 3 -10 0 20 -9 14 -20 -10 -19 -41 2 -75
16 -75 30 0 10 5 11 19 4 12 -6 18 -6 18 0 0 5 10 8 23 6 20 -4 20 -3 5 9 -10
7 -15 16 -11 20 4 3 10 1 14 -5 4 -7 18 -9 39 -4z m384 -116 c39 -11 155 -113
142 -126 -3 -3 -27 3 -53 15 -216 92 -384 29 -526 -200 -54 -87 -71 -95 -65
-30 13 137 147 293 291 337 52 17 159 19 211 4z m2500 -51 c17 -12 37 -28 43
-36 18 -21 30 -6 15 18 -17 28 -15 30 18 19 50 -18 86 -66 137 -182 61 -140
61 -142 23 -83 -43 67 -134 161 -200 207 -30 21 -71 52 -90 69 -35 30 -35 30
-6 20 16 -6 43 -20 60 -32z m-3164 -68 c0 -5 -4 -10 -10 -10 -5 0 -10 5 -10
10 0 6 5 10 10 10 6 0 10 -4 10 -10z m2483 -47 c-86 -113 -132 -251 -133 -395
l0 -57 -238 0 c-131 0 -246 -3 -255 -7 -14 -5 -15 -2 -7 22 32 89 77 160 118
188 24 15 45 26 47 24 3 -2 10 -40 16 -83 l12 -80 34 74 c18 41 33 80 33 89 0
12 3 12 15 2 12 -10 15 -10 15 3 0 9 -4 19 -10 22 -10 6 -4 54 12 98 17 46 21
40 55 -86 9 -34 28 -10 48 62 11 40 25 73 30 74 6 1 14 -15 19 -35 5 -21 12
-38 15 -38 3 0 21 29 39 64 18 35 42 72 54 82 l21 19 -17 -33 c-31 -61 -11
-66 43 -12 63 63 82 65 34 3z m-1445 14 c11 0 19 -4 16 -8 -2 -4 3 -9 11 -13
8 -3 22 -20 32 -39 10 -19 37 -71 61 -117 24 -45 42 -84 40 -86 -2 -1 -15 18
-28 43 -13 25 -26 41 -28 35 -4 -12 -42 22 -42 38 0 5 -8 14 -17 19 -17 10
-17 10 0 11 20 0 23 15 4 27 -20 13 -87 95 -87 107 0 6 4 5 9 -2 4 -7 17 -14
29 -15z m-474 -3 c17 -7 11 -33 -12 -51 -29 -24 -112 -10 -112 18 0 23 88 47
124 33z m234 -20 c37 -7 47 -38 37 -109 -9 -55 -39 -102 -82 -125 l-32 -17 47
-22 c58 -28 140 -80 167 -105 l20 -18 -20 11 c-11 6 -36 21 -55 33 -85 50
-199 106 -231 112 -25 5 -30 5 -19 -3 12 -9 9 -11 -15 -11 -16 1 -64 -1 -105
-3 -79 -5 -172 5 -254 25 -47 12 -48 13 -20 20 16 4 48 13 72 20 35 10 48 10
75 -2 59 -25 144 -25 199 1 62 29 87 68 90 142 l2 57 47 0 c26 0 60 -3 77 -6z
m2018 -89 c-3 -8 -1 -27 4 -42 11 -32 33 -293 26 -300 -10 -10 -79 -15 -121
-9 l-42 7 -7 90 c-4 49 -9 97 -13 107 -5 14 -2 13 11 -3 8 -11 19 -37 22 -59
11 -59 25 -21 33 88 5 74 8 85 15 59 4 -18 11 -33 16 -33 9 0 20 25 20 45 0
25 19 65 31 65 6 0 9 -7 5 -15z m-1815 -118 c30 -18 82 -51 117 -75 35 -23 68
-42 73 -42 5 0 9 -4 9 -10 0 -5 8 -10 17 -10 9 0 13 -3 10 -6 -4 -4 1 -14 11
-23 30 -28 58 -73 137 -226 221 -426 283 -530 456 -762 55 -73 107 -146 117
-163 10 -16 22 -27 25 -23 4 3 7 -1 7 -9 0 -9 6 -18 14 -21 7 -3 23 -26 36
-51 12 -25 26 -48 31 -51 11 -7 79 -129 79 -141 0 -5 -14 14 -31 41 -18 28
-40 58 -49 67 -10 9 -33 37 -51 62 -18 25 -34 44 -36 42 -3 -2 18 -35 45 -73
49 -69 101 -155 162 -271 26 -49 38 -62 52 -59 15 4 16 2 8 -14 -8 -14 -6 -28
9 -56 11 -21 20 -33 20 -28 0 6 -6 21 -14 35 -19 33 -18 41 0 33 9 -3 14 -8
11 -10 -3 -3 4 -15 15 -26 11 -12 17 -27 14 -35 -3 -8 0 -10 7 -6 8 5 9 2 5
-10 -4 -10 -3 -15 3 -11 13 8 33 -33 25 -53 -3 -9 -3 -13 1 -9 8 7 84 -138 84
-160 0 -7 -5 -13 -11 -13 -5 0 -7 -4 -4 -10 3 -5 1 -10 -4 -10 -13 0 -14 6 -2
28 5 11 3 28 -5 47 -7 17 -13 26 -14 22 -1 -28 -70 90 -70 120 0 8 -4 11 -10
8 -6 -3 -10 4 -11 17 0 13 -3 17 -6 9 -7 -17 27 -131 39 -131 4 0 8 -5 8 -11
0 -5 -4 -7 -10 -4 -5 3 -10 1 -10 -5 0 -7 8 -9 19 -5 26 8 58 -40 40 -61 -9
-11 -4 -29 24 -86 98 -203 139 -308 121 -308 -5 1 -37 42 -72 93 -80 115 -128
177 -135 171 -5 -5 -67 82 -67 94 0 4 5 0 11 -8 9 -13 10 -13 6 0 -2 8 -9 16
-15 16 -7 1 -16 2 -22 3 -5 0 -10 5 -10 11 0 5 -15 42 -34 82 -19 40 -41 90
-50 110 -8 21 -19 43 -25 50 -55 68 -131 170 -118 159 12 -9 17 -10 17 -2 0 7
5 9 10 6 6 -4 8 -10 6 -14 -3 -4 11 -25 32 -47 20 -21 50 -59 67 -84 16 -25
38 -54 47 -65 10 -11 25 -29 34 -40 34 -44 -39 75 -97 158 -62 88 -200 227
-226 227 -15 0 -16 9 -4 29 13 20 37 3 151 -106 90 -85 91 -86 69 -42 -32 61
-105 167 -146 210 -22 24 -32 41 -27 52 6 17 24 24 24 9 0 -4 10 -13 23 -21
l22 -14 -21 24 c-32 37 -35 44 -23 78 7 21 16 30 25 27 20 -8 17 8 -6 29 -17
15 -31 16 -120 10 l-101 -7 -90 93 c-49 52 -89 89 -89 84 0 -6 -6 1 -13 15
-23 43 -59 104 -69 120 -6 8 11 -8 38 -36 27 -28 74 -71 104 -95 l55 -44 -32
40 c-51 65 -160 168 -171 162 -5 -4 -20 6 -33 21 l-24 27 28 -24 c41 -37 32
-12 -16 40 -94 103 -247 278 -292 334 -73 89 -146 158 -300 280 -33 27 -62 50
-64 52 -2 1 -2 6 2 9 10 10 97 -37 156 -85 55 -44 93 -82 131 -131 83 -107
141 -179 161 -201 13 -14 62 -67 109 -118 74 -82 281 -276 404 -381 35 -29 33
-25 -14 26 -112 122 -135 149 -133 156 2 5 0 7 -5 5 -4 -1 -25 18 -47 42 -22
25 -61 65 -87 89 -27 25 -48 49 -48 55 0 5 22 -10 48 -34 69 -63 92 -80 92
-70 0 5 -13 19 -30 31 -16 12 -29 26 -27 33 1 6 -4 11 -10 12 -7 0 -13 5 -14
10 -1 16 -20 35 -29 30 -5 -3 -12 5 -16 17 -3 12 -20 36 -37 52 -17 17 -22 21
-12 9 25 -32 14 -29 -16 4 -13 14 -18 23 -11 19 6 -4 12 -2 12 3 0 6 -7 11
-15 11 -7 0 -18 7 -22 14 -22 39 -178 204 -273 289 -36 32 -56 54 -45 50 35
-12 148 -109 210 -180 120 -136 360 -383 373 -383 7 0 10 -5 6 -12 -4 -6 -3
-8 4 -4 5 3 12 0 15 -6 2 -7 7 -10 11 -7 7 6 -88 145 -177 259 -73 94 -217
242 -302 311 -65 52 -85 81 -42 58 75 -41 246 -204 331 -316 50 -66 73 -86 36
-30 -11 17 -26 43 -31 57 -23 55 -48 95 -59 92 -6 -1 -9 2 -5 8 4 6 -15 37
-41 68 -49 58 -189 194 -224 219 -11 8 -25 24 -32 36 -10 19 -7 19 28 -7 52
-39 128 -103 188 -160 27 -26 51 -45 52 -43 2 2 -10 20 -27 40 -17 20 -28 40
-25 45 13 22 -134 167 -264 258 -72 50 -88 64 -76 64 2 0 28 -15 57 -33z m157
-2 c-3 -3 -9 2 -12 12 -6 14 -5 15 5 6 7 -7 10 -15 7 -18z m2087 -126 c4 -13
2 -25 -5 -29 -8 -5 -10 -18 -6 -36 7 -28 7 -28 -13 -10 -21 19 -21 19 -21 0
-1 -10 -16 27 -35 83 -19 56 -39 113 -45 125 -7 13 18 -7 53 -45 36 -37 69
-77 72 -88z m-2072 64 c32 -26 23 -30 -18 -9 -28 15 -45 33 -45 50 0 8 8 3 63
-41z m51 -19 c3 -8 2 -12 -4 -9 -6 3 -10 10 -10 16 0 14 7 11 14 -7z m1435
-126 c7 -19 7 -28 -1 -28 -5 0 -7 -7 -4 -16 3 -8 2 -12 -4 -9 -9 6 -40 98 -40
119 1 16 38 -35 49 -66z m-2628 14 c-7 -2 -18 1 -23 6 -8 8 -4 9 13 5 13 -4
18 -8 10 -11z m1776 -34 c-3 -7 -5 -2 -5 12 0 14 2 19 5 13 2 -7 2 -19 0 -25z
m-1210 -17 c45 -18 96 -42 115 -54 18 -13 54 -35 80 -50 83 -48 266 -212 253
-226 -3 -2 2 -13 12 -23 9 -10 14 -20 11 -23 -2 -3 -18 9 -34 27 -16 17 -22
27 -14 23 10 -6 9 -2 -3 13 -11 12 -25 18 -35 15 -11 -5 -14 -2 -9 10 4 10 2
16 -6 14 -7 -1 -11 4 -9 11 1 8 -2 11 -8 7 -10 -6 -51 23 -127 91 -76 67 -163
124 -255 164 -43 18 -78 36 -78 38 0 2 6 2 13 -1 6 -2 49 -19 94 -36z m-860 3
c-3 -3 -12 -4 -19 -1 -8 3 -5 6 6 6 11 1 17 -2 13 -5z m777 -44 c99 -39 127
-44 90 -15 -19 15 -19 15 1 7 25 -9 104 -51 119 -63 6 -4 52 -38 101 -75 95
-70 153 -127 212 -209 33 -46 33 -48 7 -23 -82 76 -117 111 -99 98 19 -14 19
-14 6 3 -8 10 -20 16 -27 13 -7 -2 -20 4 -29 13 -9 10 -55 45 -103 77 -48 32
-91 64 -95 71 -5 7 -12 11 -18 8 -5 -4 -9 -2 -9 3 0 5 -7 9 -16 9 -14 0 -15
-2 -2 -11 80 -59 268 -233 268 -248 0 -17 -21 -7 -52 25 -18 17 -57 49 -87 71
-30 21 -59 43 -65 48 -6 5 -73 51 -150 101 -76 51 -150 100 -165 109 -14 10
-35 22 -46 28 -49 25 66 -4 159 -40z m-1779 -20 c4 -6 -6 -7 -27 -3 -44 8 -48
13 -10 13 17 0 34 -4 37 -10z m3922 -37 c-3 -10 -5 -2 -5 17 0 19 2 27 5 18 2
-10 2 -26 0 -35z m-48 -154 c-4 -9 -18 -19 -29 -22 -16 -4 -20 0 -20 21 0 15
10 43 22 62 l22 35 7 -40 c4 -22 3 -47 -2 -56z m-3914 71 c-3 -6 -12 -10 -19
-10 -6 0 -49 -18 -94 -40 l-83 -41 -791 1 c-822 0 -808 0 -808 40 0 47 -37 45
882 50 475 3 876 6 891 7 17 2 26 -1 22 -7z m3705 -42 c10 -24 18 -43 17 -45
-2 -1 -177 -3 -391 -4 -424 -2 -394 -6 -434 61 l-21 35 405 -3 405 -2 19 -42z
m-3690 -50 c0 -19 -4 -28 -8 -21 -5 9 -19 9 -47 3 -51 -12 -55 -12 -55 -1 0 7
81 45 108 50 1 1 2 -14 2 -31z m2295 -38 c3 -5 1 -10 -4 -10 -6 0 -11 5 -11
10 0 6 2 10 4 10 3 0 8 -4 11 -10z m1189 -139 c410 -1 426 -3 426 -41 0 -38
-18 -40 -371 -43 -189 -1 -351 -6 -360 -10 -11 -6 -30 6 -67 44 -29 29 -52 56
-52 62 0 6 5 6 13 -1 7 -6 158 -10 411 -11z m-3630 -2 c-2 -4 -26 -24 -54 -45
l-50 -38 -767 2 c-562 2 -770 5 -780 14 -8 6 -13 23 -11 37 2 20 10 27 33 31
43 7 1634 6 1629 -1z m114 -81 c-17 -14 -38 -17 -84 -16 -34 2 -60 6 -57 11 2
4 39 25 81 46 l77 39 3 -31 c3 -23 -2 -35 -20 -49z m1839 65 c-4 -3 3 -18 15
-32 l23 -26 -27 24 c-30 26 -36 41 -16 41 6 0 8 -3 5 -7z m442 -7 c9 -11 9
-16 -1 -22 -7 -4 -10 -4 -6 1 4 4 3 14 -3 22 -6 7 -9 13 -6 13 2 0 10 -6 16
-14z m362 -3 c13 -16 12 -17 -3 -4 -10 7 -18 15 -18 17 0 8 8 3 21 -13z m450
-30 c13 -16 12 -17 -3 -4 -10 7 -18 15 -18 17 0 8 8 3 21 -13z m-744 -54 c21
-34 44 -68 51 -75 9 -9 10 -14 2 -14 -6 0 -19 14 -28 31 -9 17 -32 49 -49 71
-36 43 -38 48 -23 48 5 0 27 -28 47 -61z m-972 13 c-3 -3 -16 5 -28 17 l-22
23 28 -17 c15 -10 25 -20 22 -23z m1326 23 c3 2 5 -5 5 -15 0 -25 0 -25 -22 8
-13 19 -13 24 -2 15 8 -7 17 -11 19 -8z m-1285 -46 c19 -22 19 -22 -3 -8 -13
8 -23 17 -23 21 0 12 6 9 26 -13z m-1681 -59 c-3 -5 -12 -10 -18 -10 -7 0 -6
4 3 10 19 12 23 12 15 0z m251 -22 c4 -6 3 -8 -4 -4 -6 3 -18 -4 -26 -16 -9
-12 -16 -18 -16 -14 0 9 29 46 36 46 2 0 6 -5 10 -12z m3224 -23 c11 -13 10
-14 -4 -9 -9 3 -16 10 -16 15 0 13 6 11 20 -6z m-495 -15 c10 -11 16 -20 13
-20 -3 0 -13 9 -23 20 -10 11 -16 20 -13 20 3 0 13 -9 23 -20z m-3395 -130
c63 -23 154 -62 202 -86 105 -53 312 -190 353 -235 l30 -33 -44 34 c-105 81
-391 232 -442 234 -15 1 -25 4 -22 9 2 4 1 7 -4 8 -61 4 -161 37 -123 39 21 2
-137 48 -185 54 -31 4 -34 3 -15 -3 21 -8 22 -9 5 -10 -28 -1 -61 29 -69 60
l-6 27 103 -28 c56 -15 154 -47 217 -70z m1880 -1 c0 -4 -9 -7 -20 -6 -11 1
-20 2 -20 3 0 1 3 10 6 18 5 13 9 14 20 5 8 -6 14 -15 14 -20z m-2073 5 c-3
-3 -12 -4 -19 -1 -8 3 -5 6 6 6 11 1 17 -2 13 -5z m3573 -30 c0 -3 -5 -2 -12
2 -7 4 -8 3 -4 -5 4 -6 12 -9 17 -6 5 4 36 -14 68 -40 33 -25 88 -64 123 -88
79 -53 138 -100 138 -109 0 -5 -16 -8 -35 -8 -30 0 -54 16 -168 111 -72 61
-145 126 -160 144 l-28 34 30 -15 c17 -9 31 -18 31 -20z m-3533 20 c-3 -3 -12
-4 -19 -1 -8 3 -5 6 6 6 11 1 17 -2 13 -5z m3652 -28 c-3 -3 -11 5 -18 17 -13
21 -12 21 5 5 10 -10 16 -20 13 -22z m-3608 -56 c423 -141 720 -318 979 -583
124 -127 134 -148 16 -33 -263 257 -535 416 -956 558 -80 27 -175 56 -212 64
-53 12 -72 22 -87 43 l-20 27 67 -13 c36 -8 133 -36 213 -63z m3519 -54 c87
-89 49 -65 -47 30 -49 48 -70 73 -48 56 22 -17 65 -56 95 -86z m-1690 54 c6
-11 8 -20 6 -20 -3 0 -10 9 -16 20 -6 11 -8 20 -6 20 3 0 10 -9 16 -20z
m-1810 -125 c363 -125 645 -295 904 -545 105 -101 264 -289 293 -345 15 -29
133 -574 133 -615 0 -12 -18 -15 -108 -14 -59 1 -333 2 -609 3 -277 1 -503 5
-503 9 0 5 26 15 58 22 71 15 165 57 229 102 l48 33 -71 6 c-118 11 -126 18
-52 43 35 11 88 37 118 56 l54 34 -33 7 c-44 9 -151 52 -151 60 0 4 17 10 37
14 45 8 133 52 133 65 0 6 -10 10 -22 10 -13 1 -57 19 -98 40 l-75 39 60 1
c86 1 99 12 55 49 -49 41 -233 145 -305 172 -33 12 -63 25 -68 29 -4 3 -14 43
-22 89 -46 261 -150 521 -264 661 -21 25 -40 50 -44 56 -8 13 160 -31 303 -81z
m821 -8 c-10 -9 -11 -8 -5 6 3 10 9 15 12 12 3 -3 0 -11 -7 -18z m2789 -28 c3
-3 16 -13 30 -22 13 -9 20 -17 14 -17 -7 0 -29 17 -51 38 -22 20 -30 30 -19
22 12 -8 23 -18 26 -21z m-2392 -26 c44 -52 44 -53 14 -42 -33 11 -112 75
-112 90 0 6 12 9 26 7 17 -2 42 -21 72 -55z m2266 8 c-2 -3 -12 3 -22 13 -16
17 -16 18 5 5 12 -7 20 -15 17 -18z m811 -1 c3 -6 -1 -7 -9 -4 -18 7 -21 14
-7 14 6 0 13 -4 16 -10z m-778 -16 c-3 -3 -12 -4 -19 -1 -8 3 -5 6 6 6 11 1
17 -2 13 -5z m365 -171 c-46 -116 -79 -211 -137 -387 l-52 -160 -104 -22 c-57
-12 -124 -30 -149 -38 -71 -26 -203 -100 -291 -163 l-81 -58 81 -5 80 -5 -94
-79 c-52 -43 -95 -82 -95 -86 0 -9 100 -29 159 -33 l44 -2 -77 -54 c-42 -30
-76 -58 -76 -62 0 -10 40 -18 135 -27 l70 -7 -55 -31 c-30 -16 -54 -35 -53
-42 2 -9 -199 -12 -876 -12 -829 0 -880 1 -885 18 -14 49 -116 536 -116 556 0
13 8 27 18 31 68 27 366 137 507 187 1025 363 1610 527 1982 557 48 4 90 6 92
4 2 -1 -10 -37 -27 -80z m382 -139 c3 -8 2 -12 -4 -9 -6 3 -10 10 -10 16 0 14
7 11 14 -7z m-2971 -14 c-3 -12 -8 -19 -11 -16 -5 6 5 36 12 36 2 0 2 -9 -1
-20z m2632 -99 c3 -5 1 -12 -5 -16 -5 -3 -10 1 -10 9 0 18 6 21 15 7z m35 -40
c13 -25 13 -34 0 -26 -16 10 -32 45 -21 45 6 0 15 -9 21 -19z m1660 -41 c0
-61 -192 -628 -218 -644 -7 -4 -363 -10 -404 -7 -15 1 -14 8 9 64 33 81 149
423 168 499 30 115 3 103 239 103 178 0 206 -2 206 -15z m-5730 -20 c4 -14 10
-42 14 -62 l7 -38 -36 0 c-69 0 -122 -20 -164 -63 -67 -67 -117 -223 -110
-341 3 -40 0 -56 -8 -56 -7 0 -13 -8 -12 -17 0 -11 3 -13 6 -5 11 27 22 9 18
-30 -4 -41 -4 -42 10 -18 13 24 14 23 8 -15 -3 -22 -10 -43 -16 -46 -5 -4 4
-6 21 -6 20 1 28 6 24 15 -4 11 -6 11 -12 1 -5 -7 -7 -1 -7 15 l2 26 17 -22
c9 -13 18 -27 20 -32 1 -5 20 -27 41 -50 20 -23 37 -43 37 -46 0 -3 -100 -7
-223 -9 -122 -2 -247 -4 -277 -5 l-55 -1 -34 65 c-45 87 -64 133 -52 125 6 -3
11 -1 11 4 0 6 -6 11 -12 11 -28 1 -131 274 -193 514 -14 54 -25 102 -25 107
0 5 207 8 497 7 l497 -3 6 -25z m4965 -2 c-8 -18 -43 -89 -79 -157 l-64 -125
-45 90 c-25 49 -59 116 -76 149 -17 33 -31 63 -31 68 0 4 70 7 154 7 l155 0
-14 -32z m-4805 -210 c30 -14 64 -33 75 -43 l20 -17 -20 7 c-80 26 -285 29
-285 3 0 -6 -7 -8 -15 -4 -25 9 -17 -11 15 -38 20 -16 91 -45 193 -78 92 -29
153 -54 140 -56 -12 -2 -91 8 -176 23 -146 24 -194 25 -181 4 3 -5 -7 -9 -23
-9 l-28 -1 30 -25 c17 -13 22 -22 12 -18 -12 4 -16 2 -12 -8 7 -18 109 -53
125 -43 8 5 11 4 7 -2 -4 -7 7 -13 26 -16 69 -12 170 -44 156 -51 -8 -3 0 -4
16 -1 26 5 28 4 11 -6 -15 -9 -40 -9 -106 -1 -106 15 -173 36 -224 73 -30 22
-42 26 -48 16 -14 -21 -9 -61 12 -95 12 -19 16 -31 10 -27 -14 9 -13 -18 3
-35 6 -8 1 -6 -12 5 -43 36 -71 107 -71 180 0 65 19 125 40 125 6 0 10 29 10
65 0 63 1 66 33 86 48 30 190 23 267 -13z m4199 -27 c56 -81 121 -210 114
-228 -8 -21 -16 -10 -86 129 -92 182 -96 195 -28 99z m-375 -75 c87 -43 156
-125 200 -240 21 -53 41 -98 46 -101 5 -3 18 0 28 6 17 10 33 3 118 -49 108
-66 254 -165 250 -169 -1 -1 -33 9 -71 22 -82 30 -83 30 -59 4 l19 -22 -31 16
c-16 9 -55 37 -85 64 l-54 48 38 -47 c41 -51 41 -60 0 -28 -19 15 -29 17 -39
10 -8 -8 -14 -8 -19 -1 -3 6 -23 15 -43 20 -20 6 -62 32 -91 58 -30 27 -56 47
-58 45 -10 -8 -58 38 -98 93 -66 89 -90 99 -224 90 -58 -3 -133 -10 -166 -15
-33 -6 -82 -10 -110 -9 -44 0 -47 2 -25 10 14 6 69 19 123 30 105 21 256 65
271 79 5 5 -3 12 -19 16 -31 8 -16 23 25 25 21 1 20 2 -10 11 -36 10 -305 6
-350 -6 -14 -3 -1 5 27 20 122 59 308 68 407 20z m-71 -307 c67 -3 75 -14 15
-23 -189 -29 -457 -48 -410 -29 38 15 281 61 307 57 17 -2 56 -4 88 -5z m1178
-46 c-12 -20 -14 -14 -5 12 4 9 9 14 11 11 3 -2 0 -13 -6 -23z m7 -30 c-10 -2
-21 -16 -24 -29 -4 -14 -8 -23 -11 -21 -2 3 -1 16 3 31 4 18 12 26 28 25 16
-1 17 -2 4 -6z m-1 -115 c7 -16 11 -28 9 -28 -8 0 -36 58 -35 72 0 9 2 8 6 -2
3 -8 12 -27 20 -42z m324 11 c-12 -19 -21 -30 -21 -26 0 12 33 67 38 63 1 -2
-6 -19 -17 -37z m-300 -6 c-12 -20 -14 -14 -5 12 4 9 9 14 11 11 3 -2 0 -13
-6 -23z m54 18 c3 -5 1 -12 -5 -16 -5 -3 -10 1 -10 9 0 18 6 21 15 7z m105
-11 c0 -5 -2 -10 -4 -10 -3 0 -8 5 -11 10 -3 6 -1 10 4 10 6 0 11 -4 11 -10z
m-142 -96 c-4 -3 -12 5 -18 18 -12 22 -12 22 6 6 10 -10 15 -20 12 -24z m212
16 c0 -5 -2 -10 -4 -10 -3 0 -8 5 -11 10 -3 6 -1 10 4 10 6 0 11 -4 11 -10z
m16 -18 c-17 -16 -18 -16 -5 5 7 12 15 20 18 17 3 -2 -3 -12 -13 -22z m-5376
-11 c0 -5 -11 -8 -25 -8 -13 0 -22 3 -19 8 3 5 14 9 25 9 10 0 19 -4 19 -9z
m5233 -8 c-13 -2 -33 -2 -45 0 -13 2 -3 4 22 4 25 0 35 -2 23 -4z m85 0 c-10
-2 -28 -2 -40 0 -13 2 -5 4 17 4 22 1 32 -1 23 -4z m-6079 -220 c6 -21 49
-207 97 -413 47 -206 100 -431 118 -500 31 -124 31 -125 59 -122 l27 3 0 -90
0 -90 -57 -6 c-32 -4 -107 -13 -166 -21 -158 -21 -147 -24 -147 46 0 53 2 60
20 60 15 0 20 7 20 26 0 32 -20 114 -28 114 -17 0 -317 -43 -321 -45 -1 -2
-13 -39 -25 -83 -18 -63 -20 -81 -10 -88 10 -7 11 -24 6 -63 l-7 -54 -174 -29
c-95 -16 -174 -28 -175 -26 -1 2 1 41 4 88 4 75 7 85 25 88 30 6 44 21 55 61
9 30 73 272 301 1144 l10 37 179 0 179 0 10 -37z m766 0 c-10 -60 -26 -105
-52 -145 l-23 -38 0 -391 0 -391 113 7 c61 4 115 9 120 12 4 2 7 24 7 47 l0
43 46 7 c26 3 60 6 76 6 l29 0 -3 -147 -3 -148 -55 -3 c-62 -3 -549 -49 -622
-58 l-48 -7 0 86 0 86 33 3 32 3 3 422 2 422 -29 47 c-17 26 -33 67 -36 93 -4
25 -9 54 -12 64 -4 16 11 17 212 17 l216 0 -6 -37z m1105 -132 c0 -190 4 -181
-78 -181 -89 0 -92 3 -92 81 l0 69 -50 0 -50 0 0 -380 0 -380 30 0 30 0 0 -84
0 -83 -82 -7 c-46 -3 -136 -9 -200 -12 l-118 -7 0 81 0 81 38 3 37 3 3 393 2
392 -44 0 c-51 0 -56 -7 -56 -86 l0 -54 -80 0 -80 0 0 170 0 170 395 0 395 0
0 -169z m756 134 c45 -24 65 -41 84 -75 l25 -45 0 -395 c0 -375 -1 -397 -20
-434 -49 -97 -144 -131 -370 -130 -216 0 -302 30 -355 124 l-25 45 -3 360 c-2
246 0 377 8 413 13 58 46 104 94 129 72 38 107 42 307 40 l196 -2 59 -30z
m964 32 c0 -13 -52 -152 -60 -163 -8 -9 2 -63 39 -206 67 -258 139 -519 144
-524 6 -6 70 220 156 548 l41 156 -30 92 c-16 50 -30 94 -30 96 0 2 90 4 200
4 l200 0 -5 -22 c-3 -13 -10 -45 -15 -73 -6 -27 -24 -69 -40 -93 -16 -24 -34
-69 -41 -100 -6 -32 -35 -145 -64 -252 -29 -107 -74 -277 -101 -377 l-48 -183
-221 0 -222 0 -10 43 c-6 23 -53 202 -106 397 -52 195 -98 371 -102 390 -4 19
-22 60 -41 90 -18 30 -38 75 -44 100 -6 25 -13 53 -16 63 -5 16 9 17 205 17
116 0 211 -1 211 -3z m1299 -34 c101 -385 216 -810 242 -890 19 -57 23 -62 52
-65 l32 -3 3 -84 3 -84 -68 6 c-37 4 -113 9 -168 12 -173 10 -165 7 -165 70 0
53 1 55 26 55 29 0 29 7 3 102 l-10 38 -77 0 c-42 0 -113 3 -158 6 l-81 7 -16
-60 c-22 -76 -21 -83 3 -83 22 0 24 -16 14 -81 l-6 -37 -107 4 c-58 3 -134 7
-168 10 l-63 6 0 68 c0 81 6 100 31 100 14 0 24 20 48 93 31 98 162 557 206
722 14 55 28 106 30 113 3 9 51 12 194 12 l190 0 10 -37z m795 -25 c-8 -35
-26 -82 -40 -105 l-25 -43 1 -387 c0 -213 1 -388 3 -389 5 -6 210 -25 214 -20
3 3 8 25 10 51 6 44 6 45 42 45 20 0 53 -3 74 -6 l37 -7 0 -153 c0 -152 0
-154 -22 -154 -12 0 -103 9 -202 20 -100 12 -253 26 -341 33 l-160 12 -3 83
-3 82 41 0 40 0 0 392 0 391 -29 46 c-25 39 -61 136 -61 163 0 4 99 8 219 8
l219 0 -14 -62z m1056 -98 l0 -160 -65 0 -65 0 0 45 c0 55 -6 57 -145 53
l-100 -3 -3 -152 -3 -151 38 -6 c21 -3 79 -10 128 -16 150 -18 135 -4 135
-125 0 -58 -3 -105 -7 -105 -5 0 -57 7 -118 15 -60 8 -125 15 -143 15 l-33 0
3 -157 3 -158 105 -17 c58 -9 119 -20 136 -23 30 -5 31 -4 37 36 3 22 7 43 10
45 2 3 34 -3 71 -12 l66 -16 0 -154 c0 -85 -4 -154 -8 -154 -5 0 -71 13 -148
29 -123 26 -378 67 -546 87 l-58 6 0 90 0 90 28 -4 29 -4 7 264 c4 145 4 334
0 420 -6 151 -7 159 -36 204 -26 42 -58 131 -58 166 0 9 81 12 370 12 l370 0
0 -160z m-4406 -1422 l66 -123 0 120 0 120 45 2 45 2 0 -229 0 -230 -47 0 -48
0 -53 109 c-79 162 -77 161 -74 16 l3 -126 -46 3 -46 3 -3 222 -3 222 46 4
c25 2 47 4 48 5 1 1 31 -53 67 -120z m674 70 l3 -48 -85 0 -86 0 0 -40 0 -40
65 0 65 0 0 -45 c0 -40 -3 -45 -22 -46 -29 -1 -91 -6 -100 -8 -5 0 -8 -19 -8
-41 l0 -40 79 0 79 0 4 -32 c8 -69 10 -68 -132 -68 l-129 0 -3 225 c-3 262
-22 233 152 231 l115 -1 3 -47z m346 25 c3 -16 15 -79 27 -142 l22 -114 14 49
c7 27 21 87 30 134 9 47 21 88 27 92 6 4 28 8 48 8 31 0 39 -4 43 -22 3 -13
16 -74 29 -136 13 -63 26 -115 28 -117 2 -2 14 53 27 123 12 70 24 132 26 138
3 11 105 20 105 9 0 -4 -18 -86 -39 -183 -22 -98 -44 -197 -48 -222 l-9 -45
-55 -3 -55 -3 -23 108 c-13 59 -29 122 -36 138 l-13 30 -1 -30 c-1 -16 -8 -54
-16 -84 -7 -29 -17 -78 -21 -107 l-6 -54 -57 0 -57 0 -12 73 c-7 39 -30 140
-50 224 l-38 152 26 4 c67 11 78 8 84 -20z m914 3 l32 -16 -26 -40 c-15 -22
-30 -40 -34 -40 -4 0 -24 7 -45 15 -38 17 -66 13 -84 -9 -20 -23 -1 -45 57
-66 117 -44 151 -86 136 -165 -19 -101 -131 -142 -259 -94 -30 11 -55 24 -55
29 0 4 12 26 26 48 l26 40 32 -19 c55 -34 126 -21 126 22 0 16 -13 24 -123 75
-50 22 -70 55 -69 111 1 87 65 137 167 130 34 -2 75 -12 93 -21z"/>
<path d="M5372 7133 c-40 -14 -71 -27 -69 -29 4 -4 147 43 155 51 9 9 -12 4
-86 -22z"/>
<path d="M5318 7133 c7 -3 16 -2 19 1 4 3 -2 6 -13 5 -11 0 -14 -3 -6 -6z"/>
<path d="M5190 7125 c0 -6 5 -16 12 -23 9 -9 8 -12 -7 -13 -14 0 -10 -4 9 -10
17 -4 32 -6 35 -4 2 3 -1 5 -7 5 -13 0 -16 26 -4 33 4 2 1 2 -7 0 -8 -2 -18 2
-23 9 -4 7 -8 8 -8 3z"/>
<path d="M5118 7107 c-24 -11 -25 -13 -10 -27 14 -13 15 -12 9 3 -4 11 -1 17
8 17 7 0 17 5 20 10 8 12 7 12 -27 -3z"/>
<path d="M5255 7090 c-3 -5 -1 -10 4 -10 6 0 11 5 11 10 0 6 -2 10 -4 10 -3 0
-8 -4 -11 -10z"/>
<path d="M5176 7055 c-11 -8 -15 -15 -10 -15 6 0 19 7 30 15 10 8 15 14 9 14
-5 0 -19 -6 -29 -14z"/>
<path d="M5115 7030 c-8 -13 5 -13 25 0 13 8 13 10 -2 10 -9 0 -20 -4 -23 -10z"/>
<path d="M5015 6921 c-3 -5 -1 -12 4 -15 5 -3 11 1 15 9 6 16 -9 21 -19 6z"/>
<path d="M5105 6890 c-3 -5 1 -10 9 -10 9 0 16 5 16 10 0 6 -4 10 -9 10 -6 0
-13 -4 -16 -10z"/>
<path d="M4930 6860 c0 -5 5 -10 10 -10 6 0 10 5 10 10 0 6 -4 10 -10 10 -5 0
-10 -4 -10 -10z"/>
<path d="M4905 6840 c3 -5 8 -10 11 -10 2 0 4 5 4 10 0 6 -5 10 -11 10 -5 0
-7 -4 -4 -10z"/>
<path d="M5030 6830 c0 -19 1 -19 20 -3 11 10 20 19 20 20 0 2 -9 3 -20 3 -13
0 -20 -7 -20 -20z"/>
<path d="M4850 6805 c0 -8 4 -15 10 -15 5 0 7 7 4 15 -4 8 -8 15 -10 15 -2 0
-4 -7 -4 -15z"/>
<path d="M4880 6809 c0 -5 5 -7 10 -4 6 3 10 8 10 11 0 2 -4 4 -10 4 -5 0 -10
-5 -10 -11z"/>
<path d="M4808 6783 c7 -3 16 -2 19 1 4 3 -2 6 -13 5 -11 0 -14 -3 -6 -6z"/>
<path d="M4757 6747 c-26 -22 -27 -37 -3 -37 6 0 6 4 -2 8 -9 6 -5 12 13 22
14 7 25 17 25 22 0 11 -1 10 -33 -15z"/>
<path d="M4810 6749 c0 -5 5 -7 10 -4 6 3 10 8 10 11 0 2 -4 4 -10 4 -5 0 -10
-5 -10 -11z"/>
<path d="M4886 6743 c-3 -4 -15 -8 -26 -10 -11 -2 -29 -12 -40 -23 -11 -11
-24 -20 -30 -20 -5 0 -10 -4 -10 -10 0 -17 18 -11 42 13 13 13 28 22 33 21 12
-4 51 24 43 31 -2 3 -8 2 -12 -2z"/>
<path d="M4782 6731 c-11 -6 -10 -10 4 -15 9 -3 19 -4 22 -1 3 3 0 5 -7 5 -7
0 -9 5 -6 10 7 12 4 12 -13 1z"/>
<path d="M4707 6637 c-10 -10 -15 -22 -11 -25 3 -4 9 -1 11 6 3 6 10 9 15 6 6
-4 8 -2 4 4 -3 6 2 12 11 14 15 3 15 5 3 9 -8 3 -23 -3 -33 -14z"/>
<path d="M4660 6585 c-7 -8 -8 -15 -2 -15 5 0 15 7 22 15 7 8 8 15 2 15 -5 0
-15 -7 -22 -15z"/>
<path d="M4565 6500 c3 -5 11 -10 16 -10 6 0 7 5 4 10 -3 6 -11 10 -16 10 -6
0 -7 -4 -4 -10z"/>
<path d="M3837 6271 c-23 -40 -21 -91 5 -146 26 -54 54 -58 77 -10 12 24 12
39 2 88 -21 100 -51 124 -84 68z"/>
<path d="M4233 6263 c-35 -38 -53 -84 -53 -137 0 -62 20 -80 78 -72 121 16
187 163 98 217 -46 28 -92 25 -123 -8z"/>
<path d="M5010 6256 c0 -2 7 -7 16 -10 8 -3 12 -2 9 4 -6 10 -25 14 -25 6z"/>
<path d="M4722 6084 c10 -10 20 -16 22 -13 3 3 -5 11 -17 18 -21 13 -21 12 -5
-5z"/>
<path d="M4827 6069 c7 -7 15 -10 18 -7 3 3 -2 9 -12 12 -14 6 -15 5 -6 -5z"/>
<path d="M5815 5740 c3 -5 8 -10 11 -10 2 0 4 5 4 10 0 6 -5 10 -11 10 -5 0
-7 -4 -4 -10z"/>
<path d="M6085 6560 c3 -5 8 -10 11 -10 2 0 4 5 4 10 0 6 -5 10 -11 10 -5 0
-7 -4 -4 -10z"/>
<path d="M6819 5263 c40 -46 75 -83 78 -83 7 0 -112 134 -134 151 -10 8 15
-23 56 -68z"/>
<path d="M7194 4528 c13 -54 46 -119 57 -112 6 4 7 9 2 13 -5 3 -19 31 -32 61
-27 63 -37 77 -27 38z"/>
<path d="M7170 4458 c0 -4 9 -22 20 -40 11 -18 20 -28 20 -23 0 6 -9 24 -20
40 -11 17 -20 27 -20 23z"/>
<path d="M7290 4370 c6 -11 15 -20 20 -20 14 0 1 28 -16 34 -12 4 -12 2 -4
-14z"/>
<path d="M7221 4354 c0 -11 3 -14 6 -6 3 7 2 16 -1 19 -3 4 -6 -2 -5 -13z"/>
<path d="M2930 5396 c0 -2 9 -6 20 -9 11 -3 18 -1 14 4 -5 9 -34 13 -34 5z"/>
<path d="M6025 4673 c-31 -7 -40 -21 -11 -16 15 3 29 9 32 14 3 5 4 8 2 8 -2
-1 -12 -3 -23 -6z"/>
<path d="M5885 4631 c-17 -7 -16 -9 11 -13 24 -3 31 -1 27 9 -6 15 -9 15 -38
4z"/>
<path d="M5790 4590 c-6 -11 -7 -20 -2 -20 6 0 12 9 15 20 3 11 3 20 1 20 -2
0 -8 -9 -14 -20z"/>
<path d="M5976 4562 c-3 -5 1 -9 9 -9 8 0 12 4 9 9 -3 4 -7 8 -9 8 -2 0 -6 -4
-9 -8z"/>
<path d="M5445 4510 c-13 -6 -15 -9 -5 -9 8 0 22 4 30 9 18 12 2 12 -25 0z"/>
<path d="M5350 4449 c0 -5 5 -7 10 -4 6 3 10 8 10 11 0 2 -4 4 -10 4 -5 0 -10
-5 -10 -11z"/>
<path d="M5225 4441 c-3 -5 0 -13 6 -17 7 -4 9 -3 5 4 -3 6 2 13 11 15 16 4
16 5 1 6 -9 0 -19 -3 -23 -8z"/>
<path d="M5115 4410 c-3 -6 1 -7 9 -4 18 7 21 14 7 14 -6 0 -13 -4 -16 -10z"/>
<path d="M5120 4380 c0 -5 5 -10 11 -10 5 0 7 5 4 10 -3 6 -8 10 -11 10 -2 0
-4 -4 -4 -10z"/>
<path d="M5308 4383 c7 -3 16 -2 19 1 4 3 -2 6 -13 5 -11 0 -14 -3 -6 -6z"/>
<path d="M4990 4363 c0 -10 4 -14 8 -8 4 6 11 13 16 18 5 4 2 7 -7 7 -10 0
-17 -8 -17 -17z"/>
<path d="M5031 4354 c0 -11 3 -14 6 -6 3 7 2 16 -1 19 -3 4 -6 -2 -5 -13z"/>
<path d="M4918 4343 c7 -3 16 -2 19 1 4 3 -2 6 -13 5 -11 0 -14 -3 -6 -6z"/>
<path d="M5095 4330 c-3 -5 -1 -10 4 -10 6 0 11 5 11 10 0 6 -2 10 -4 10 -3 0
-8 -4 -11 -10z"/>
<path d="M5040 4320 c0 -6 7 -10 15 -10 8 0 15 2 15 4 0 2 -7 6 -15 10 -8 3
-15 1 -15 -4z"/>
<path d="M4766 4245 c4 -8 1 -15 -7 -15 -7 0 -10 -2 -7 -5 3 -3 12 -3 21 1 16
6 13 34 -4 34 -4 0 -6 -7 -3 -15z"/>
<path d="M4470 4200 c-9 -6 -10 -10 -3 -10 6 0 15 5 18 10 8 12 4 12 -15 0z"/>
<path d="M4459 4168 c-9 -29 -5 -34 20 -29 25 5 25 6 3 9 -12 2 -20 8 -17 13
4 5 4 9 1 9 -3 0 -6 -1 -7 -2z"/>
<path d="M1960 4059 c0 -5 5 -7 10 -4 6 3 10 8 10 11 0 2 -4 4 -10 4 -5 0 -10
-5 -10 -11z"/>
<path d="M2050 4060 c0 -5 10 -10 23 -10 18 0 19 2 7 10 -19 13 -30 13 -30 0z"/>
<path d="M2115 4060 c27 -12 43 -12 25 0 -8 5 -22 9 -30 9 -10 0 -8 -3 5 -9z"/>
<path d="M2183 4049 c6 -10 20 -19 32 -21 11 -2 20 -10 19 -18 -1 -9 7 -17 17
-17 12 -1 16 3 12 13 -4 10 3 14 23 15 29 0 29 0 5 10 -16 6 -28 6 -37 -2 -11
-9 -14 -8 -14 5 0 11 9 16 27 16 47 0 19 9 -39 13 -51 3 -55 2 -45 -14z"/>
<path d="M2320 4045 c30 -17 66 -19 75 -4 11 16 -3 23 -19 10 -10 -8 -16 -9
-21 -1 -3 5 -18 10 -33 10 l-27 -1 25 -14z"/>
<path d="M2414 4051 c4 -5 0 -12 -6 -14 -9 -4 -10 -8 -3 -14 15 -12 13 -29 -7
-53 -15 -17 -15 -20 -3 -20 8 0 15 6 15 13 0 7 10 17 22 22 26 12 36 35 14 35
-9 0 -16 8 -16 20 0 11 -5 20 -11 20 -5 0 -8 -4 -5 -9z m33 -47 c-3 -3 -12 -4
-19 -1 -8 3 -5 6 6 6 11 1 17 -2 13 -5z"/>
<path d="M2140 4040 l-25 -6 25 -7 c26 -7 34 -4 29 11 -2 4 -15 5 -29 2z"/>
<path d="M2088 4033 c7 -3 16 -2 19 1 4 3 -2 6 -13 5 -11 0 -14 -3 -6 -6z"/>
<path d="M2326 4005 c-6 -17 5 -20 20 -6 5 5 18 11 29 14 13 3 10 5 -11 6 -20
1 -34 -5 -38 -14z"/>
<path d="M2056 3994 c-18 -18 -20 -24 -6 -24 5 0 14 9 20 20 13 24 7 26 -14 4z"/>
<path d="M2290 3995 c0 -8 5 -15 10 -15 6 0 10 -7 10 -17 0 -9 3 -14 6 -10 9
9 -5 57 -16 57 -6 0 -10 -7 -10 -15z"/>
<path d="M2090 3995 c0 -5 5 -17 10 -25 5 -8 10 -10 10 -5 0 6 -5 17 -10 25
-5 8 -10 11 -10 5z"/>
<path d="M2140 3995 c0 -5 5 -17 10 -25 8 -13 13 -13 31 -2 15 10 24 11 32 3
14 -14 37 -14 37 -1 0 6 -3 9 -7 8 -5 -1 -18 4 -31 11 -20 11 -25 10 -36 -5
-12 -16 -14 -16 -24 2 -6 10 -11 15 -12 9z"/>
<path d="M2330 3968 c0 -4 9 -8 20 -8 11 0 20 4 20 8 0 4 -9 8 -20 8 -11 0
-20 -4 -20 -8z"/>
<path d="M2077 3963 c-4 -3 -7 -11 -7 -17 0 -6 5 -5 12 2 6 6 9 14 7 17 -3 3
-9 2 -12 -2z"/>
<path d="M2270 3958 c0 -9 -6 -19 -12 -21 -10 -4 -10 -6 0 -6 14 -1 28 26 18
36 -3 4 -6 -1 -6 -9z"/>
<path d="M2435 3950 c-3 -5 1 -10 9 -10 8 0 18 5 21 10 3 6 -1 10 -9 10 -8 0
-18 -4 -21 -10z"/>
<path d="M2150 3930 c-13 -8 -12 -10 3 -10 9 0 17 5 17 10 0 12 -1 12 -20 0z"/>
<path d="M2294 3924 c-25 -12 -25 -13 -4 -8 14 4 22 3 18 -1 -4 -5 -2 -15 5
-23 9 -12 9 -16 -1 -19 -14 -5 -6 -23 10 -23 6 0 8 13 3 36 -4 24 -3 34 4 29
6 -3 11 -13 11 -21 0 -8 7 -14 15 -14 21 0 19 7 -8 34 -22 22 -26 22 -53 10z"/>
<path d="M2200 3920 c-9 -6 -10 -10 -3 -10 6 0 15 5 18 10 8 12 4 12 -15 0z"/>
<path d="M2407 3902 c-15 -16 -15 -19 4 -31 12 -7 24 -10 27 -6 4 3 0 10 -8
15 -11 7 -11 11 -1 24 18 22 -2 20 -22 -2z"/>
<path d="M2471 3894 c0 -11 3 -14 6 -6 3 7 2 16 -1 19 -3 4 -6 -2 -5 -13z"/>
<path d="M2130 3890 c0 -5 5 -10 10 -10 6 0 10 5 10 10 0 6 -4 10 -10 10 -5 0
-10 -4 -10 -10z"/>
<path d="M2200 3875 c-9 -10 -9 -15 -1 -15 6 0 11 5 11 10 0 18 18 11 25 -10
6 -17 8 -18 21 -6 8 8 14 21 14 28 0 10 -3 9 -11 -2 -8 -11 -12 -12 -16 -2 -6
16 -28 15 -43 -3z"/>
<path d="M2130 3846 c0 -2 7 -7 16 -10 8 -3 12 -2 9 4 -6 10 -25 14 -25 6z"/>
<path d="M2335 3840 c-3 -5 -1 -10 4 -10 6 0 11 5 11 10 0 6 -2 10 -4 10 -3 0
-8 -4 -11 -10z"/>
<path d="M6568 3993 c7 -3 16 -2 19 1 4 3 -2 6 -13 5 -11 0 -14 -3 -6 -6z"/>
<path d="M1723 2897 c-34 -139 -60 -253 -58 -255 2 -2 53 2 114 9 101 12 111
15 111 34 1 26 -91 448 -99 457 -3 3 -34 -107 -68 -245z"/>
<path d="M4285 3309 c-55 -16 -55 -17 -55 -356 l0 -313 25 -16 c61 -40 175
-22 195 31 6 15 10 147 10 313 0 321 0 323 -68 342 -43 12 -66 12 -107 -1z"/>
<path d="M6643 3122 c-13 -48 -36 -136 -52 -195 -20 -74 -25 -110 -17 -112 24
-8 206 -10 206 -2 0 4 -19 76 -41 160 -23 84 -46 171 -52 195 -6 23 -13 42
-16 42 -3 0 -16 -39 -28 -88z"/>
</g>
</svg>
